<?xml version="1.0"?>
<svg width="1564.6" height="1080" xmlns="http://www.w3.org/2000/svg" xmlns:svg="http://www.w3.org/2000/svg" enable-background="new 0 0 1564.6 1080" version="1.1" xml:space="preserve">
 <g class="layer">
  <title>Layer 1</title>
  <g id="svg_1">
   <path d="m526.6,413.8c-1.6,0 -2.9,-0.5 -3.8,-1.5c-1,-1 -1.5,-2.3 -1.5,-3.8l0,-138.9c0,-1.6 0.5,-2.8 1.5,-3.8c1,-1 2.3,-1.5 3.8,-1.5l27.6,0c1.6,0 2.9,0.5 4,1.5c1.1,1 1.6,2.3 1.6,3.8l0,51.5l52.6,0l0,-51.5c0,-1.6 0.5,-2.8 1.5,-3.8c1,-1 2.3,-1.5 3.8,-1.5l27.6,0c1.6,0 2.8,0.5 3.8,1.5c1,1 1.5,2.3 1.5,3.8l0,138.9c0,1.4 -0.5,2.7 -1.5,3.7c-1,1.1 -2.3,1.6 -3.8,1.6l-27.6,0c-1.6,0 -2.9,-0.5 -3.8,-1.6c-1,-1.1 -1.5,-2.3 -1.5,-3.7l0,-53.2l-52.6,0l0,53.2c0,1.4 -0.5,2.7 -1.6,3.7c-1.1,1.1 -2.4,1.6 -4,1.6l-27.6,0z" fill="#ffffff" id="svg_2"/>
   <path d="m685.8,413.8c-1.6,0 -2.9,-0.5 -3.8,-1.6c-1,-1.1 -1.5,-2.3 -1.5,-3.7l0,-138.9c0,-1.6 0.5,-2.8 1.5,-3.8c1,-1 2.3,-1.5 3.8,-1.5l28.6,0c1.6,0 2.9,0.5 4,1.5c1.1,1 1.6,2.3 1.6,3.8l0,138.9c0,1.4 -0.5,2.7 -1.6,3.7c-1.1,1.1 -2.4,1.6 -4,1.6l-28.6,0z" fill="#ffffff" id="svg_3"/>
   <path d="m811.4,415.9c-13.5,0 -25.2,-2.2 -34.9,-6.7c-9.8,-4.5 -17.3,-11 -22.6,-19.7c-5.3,-8.6 -8.3,-19.1 -8.9,-31.5c-0.1,-6.1 -0.2,-12.6 -0.2,-19.5c0,-6.9 0.1,-13.5 0.2,-19.8c0.6,-12.1 3.6,-22.4 9,-30.8c5.4,-8.4 13,-14.8 22.9,-19.2c9.8,-4.4 21.4,-6.6 34.6,-6.6c10.7,0 20.2,1.3 28.4,4c8.3,2.6 15.2,6.2 20.8,10.6c5.6,4.4 9.9,9.3 12.9,14.5c3,5.3 4.6,10.5 4.7,15.6c0,1.3 -0.5,2.3 -1.4,3.2c-0.9,0.9 -2,1.3 -3.3,1.3l-31.2,0c-1.6,0 -2.7,-0.2 -3.5,-0.7c-0.8,-0.5 -1.5,-1.2 -2,-2.2c-1,-2.1 -2.5,-4.4 -4.4,-6.7c-1.9,-2.3 -4.6,-4.4 -7.9,-6.1c-3.3,-1.7 -7.7,-2.6 -13.1,-2.6c-8,0 -14.3,2.1 -19,6.4c-4.7,4.3 -7.3,11.1 -7.7,20.5c-0.4,12.3 -0.4,24.6 0,37.2c0.4,10 3.1,17.2 7.9,21.6c4.8,4.4 11.3,6.6 19.4,6.6c5.3,0 10,-0.9 14.2,-2.8c4.2,-1.8 7.5,-4.7 9.9,-8.7c2.4,-3.9 3.6,-8.9 3.6,-15.1l0,-4.1l-20.1,0c-1.6,0 -2.8,-0.5 -3.8,-1.6c-1,-1.1 -1.5,-2.4 -1.5,-4l0,-15.8c0,-1.6 0.5,-2.9 1.5,-4c1,-1.1 2.3,-1.6 3.8,-1.6l53.8,0c1.6,0 2.8,0.5 3.8,1.6c1,1.1 1.5,2.4 1.5,4l0,24.4c0,12.3 -2.8,22.7 -8.3,31.4c-5.6,8.7 -13.4,15.3 -23.6,20c-10.1,4.6 -22,6.9 -35.5,6.9z" fill="#ffffff" id="svg_4"/>
   <path d="m908.8,413.8c-1.6,0 -2.9,-0.5 -3.8,-1.5c-1,-1 -1.5,-2.3 -1.5,-3.8l0,-138.9c0,-1.6 0.5,-2.8 1.5,-3.8c1,-1 2.3,-1.5 3.8,-1.5l27.6,0c1.6,0 2.9,0.5 4,1.5c1.1,1 1.6,2.3 1.6,3.8l0,51.5l52.6,0l0,-51.5c0,-1.6 0.5,-2.8 1.5,-3.8c1,-1 2.3,-1.5 3.8,-1.5l27.6,0c1.6,0 2.8,0.5 3.8,1.5c1,1 1.5,2.3 1.5,3.8l0,138.9c0,1.4 -0.5,2.7 -1.5,3.7c-1,1.1 -2.3,1.6 -3.8,1.6l-27.6,0c-1.6,0 -2.9,-0.5 -3.8,-1.6c-1,-1.1 -1.5,-2.3 -1.5,-3.7l0,-53.2l-52.6,0l0,53.2c0,1.4 -0.5,2.7 -1.6,3.7c-1.1,1.1 -2.4,1.6 -4,1.6l-27.6,0z" fill="#ffffff" id="svg_5"/>
   <path d="m565,625.5c-2.4,0 -4.3,-0.6 -5.8,-1.9c-1.4,-1.3 -2.4,-2.8 -3,-4.5l-43.6,-136.7c-0.3,-0.7 -0.4,-1.4 -0.4,-1.9c0,-1.1 0.5,-2.2 1.4,-3.1c0.9,-0.9 2,-1.4 3.3,-1.4l26.5,0c2.3,0 4.1,0.6 5.3,1.9c1.3,1.3 2.1,2.5 2.3,3.6l30.3,98.7l30.1,-98.7c0.4,-1.1 1.2,-2.4 2.5,-3.6c1.2,-1.3 3,-1.9 5.2,-1.9l26.9,0c1.1,0 2.2,0.5 3.1,1.4c0.9,0.9 1.4,2 1.4,3.1c0,0.6 -0.1,1.2 -0.4,1.9l-43.6,136.7c-0.4,1.7 -1.4,3.2 -2.8,4.5c-1.4,1.3 -3.4,1.9 -6,1.9l-32.7,0z" fill="#f2e8e8" id="svg_6"/>
   <path d="m650,625.5c-1.1,0 -2.2,-0.5 -3.1,-1.4c-0.9,-0.9 -1.4,-2 -1.4,-3.1c0,-0.7 0.1,-1.4 0.2,-1.9l50.3,-137.2c0.4,-1.6 1.3,-3 2.7,-4.2c1.4,-1.2 3.2,-1.8 5.7,-1.8l31.6,0c2.4,0 4.3,0.6 5.7,1.8c1.4,1.2 2.2,2.6 2.7,4.2l50,137.1c0.3,0.6 0.4,1.2 0.4,1.9c0,1.1 -0.5,2.2 -1.4,3.1c-0.9,0.9 -2,1.4 -3.3,1.4l-26.3,0c-2.1,0 -3.7,-0.5 -4.8,-1.6c-1.1,-1.1 -1.7,-2 -2,-2.9l-8.3,-21.8l-57,0l-8.1,21.8c-0.3,0.9 -0.9,1.8 -1.9,2.9c-1,1.1 -2.7,1.6 -5.1,1.6l-26.6,0l0,0.1zm50.2,-57l39.8,0l-19.9,-56.4l-19.9,56.4z" fill="#ffffff" id="svg_7"/>
   <path d="m815.9,625.5c-1.6,0 -2.9,-0.5 -3.8,-1.6c-1,-1.1 -1.5,-2.3 -1.5,-3.7l0,-138.9c0,-1.6 0.5,-2.8 1.5,-3.8c1,-1 2.3,-1.5 3.8,-1.5l28.2,0c1.6,0 2.8,0.5 3.8,1.5c1,1 1.5,2.3 1.5,3.8l0,111.9l64.7,0c1.6,0 2.8,0.5 3.8,1.6c1,1.1 1.5,2.4 1.5,4l0,21.4c0,1.4 -0.5,2.7 -1.5,3.7c-1,1.1 -2.3,1.6 -3.8,1.6l-98.2,0z" fill="#ffffff" id="svg_8"/>
   <path d="m943.4,625.5c-1.6,0 -2.9,-0.5 -3.8,-1.6c-1,-1.1 -1.5,-2.3 -1.5,-3.7l0,-138.9c0,-1.6 0.5,-2.8 1.5,-3.8c1,-1 2.3,-1.5 3.8,-1.5l28.2,0c1.6,0 2.8,0.5 3.8,1.5c1,1 1.5,2.3 1.5,3.8l0,111.9l64.7,0c1.6,0 2.8,0.5 3.8,1.6c1,1.1 1.5,2.4 1.5,4l0,21.4c0,1.4 -0.5,2.7 -1.5,3.7c-1,1.1 -2.3,1.6 -3.8,1.6l-98.2,0z" fill="#ffffff" id="svg_9"/>
   <path d="m1070.9,625.5c-1.6,0 -2.9,-0.5 -3.8,-1.6c-1,-1.1 -1.5,-2.3 -1.5,-3.7l0,-138.9c0,-1.6 0.5,-2.8 1.5,-3.8c1,-1 2.3,-1.5 3.8,-1.5l99.8,0c1.6,0 2.8,0.5 3.8,1.5c1,1 1.5,2.3 1.5,3.8l0,20.1c0,1.6 -0.5,2.9 -1.5,3.8c-1,1 -2.3,1.5 -3.8,1.5l-68.1,0l0,28.8l63.4,0c1.6,0 2.8,0.5 3.8,1.6c1,1.1 1.5,2.4 1.5,4l0,18.6c0,1.4 -0.5,2.7 -1.5,3.7c-1,1.1 -2.3,1.6 -3.8,1.6l-63.4,0l0,29.7l69.9,0c1.6,0 2.8,0.5 3.8,1.5c1,1 1.5,2.3 1.5,3.8l0,20.1c0,1.4 -0.5,2.7 -1.5,3.7c-1,1.1 -2.3,1.6 -3.8,1.6l-101.6,0l0,0.1z" fill="#ffffff" id="svg_10"/>
   <path d="m1245.9,625.5c-1.4,0 -2.7,-0.5 -3.7,-1.6c-1.1,-1.1 -1.6,-2.3 -1.6,-3.7l0,-45.9l-49.6,-91.4c-0.1,-0.4 -0.3,-0.8 -0.4,-1.2c-0.1,-0.4 -0.2,-0.7 -0.2,-1.2c0,-1.1 0.5,-2.2 1.4,-3.1c0.9,-0.9 2,-1.4 3.3,-1.4l26.7,0c2.1,0 3.8,0.5 5,1.6c1.2,1.1 2,2 2.5,2.9l30.5,55.1l30.8,-55.1c0.4,-0.9 1.2,-1.8 2.5,-2.9c1.2,-1.1 2.9,-1.6 5,-1.6l26.7,0c1.3,0 2.4,0.5 3.2,1.4c0.9,0.9 1.3,2 1.3,3.1c0,0.4 0,0.8 -0.1,1.2c-0.1,0.4 -0.2,0.7 -0.3,1.2l-49.6,91.4l0,45.9c0,1.4 -0.5,2.7 -1.6,3.7c-1.1,1.1 -2.4,1.6 -4,1.6l-27.8,0z" fill="#ffffff" id="svg_11"/>
   <g id="svg_12">
    <path d="m523.6,788.1c-1.2,0 -2,-0.3 -2.7,-1c-0.6,-0.7 -0.9,-1.5 -0.9,-2.6l0,-102.5c0,-1.1 0.3,-2.1 0.9,-2.7c0.6,-0.7 1.5,-1 2.7,-1l35.6,0c10.8,0 19.5,1.6 26.1,4.9c6.6,3.2 11.4,8 14.4,14.4c3,6.3 4.6,14.1 4.7,23.3c0.1,4.7 0.2,8.8 0.2,12.4c0,3.6 -0.1,7.6 -0.2,12.2c-0.2,9.6 -1.8,17.6 -4.8,23.9c-3,6.3 -7.7,11 -14.1,14.1c-6.4,3.1 -14.9,4.6 -25.5,4.6l-36.4,0zm11.8,-13.4l23.9,0c7.2,0 13,-1 17.3,-3c4.3,-2 7.4,-5.2 9.3,-9.6c1.9,-4.4 3,-10.2 3.1,-17.4c0.2,-3.1 0.3,-5.9 0.3,-8.2s0,-4.7 0,-7.1c0,-2.4 -0.1,-5 -0.3,-8.1c-0.2,-10.1 -2.6,-17.7 -7.2,-22.5c-4.6,-4.9 -12.3,-7.3 -23.2,-7.3l-23.1,0l0,83.2l-0.1,0z" fill="#ffffff" id="svg_13"/>
    <path d="m658.7,789.6c-10.9,0 -19.5,-3.3 -25.9,-10c-6.4,-6.6 -9.9,-15.7 -10.5,-27.2c-0.1,-1.4 -0.2,-3.1 -0.2,-5.3c0,-2.1 0.1,-3.9 0.2,-5.3c0.4,-7.4 2.1,-13.9 5.2,-19.5c3,-5.6 7.2,-9.9 12.5,-12.9c5.3,-3 11.5,-4.6 18.6,-4.6c7.9,0 14.6,1.7 20,5c5.4,3.3 9.5,8.1 12.3,14.3c2.8,6.2 4.2,13.4 4.2,21.7l0,2.7c0,1.2 -0.3,2 -1,2.7c-0.7,0.6 -1.5,0.9 -2.6,0.9l-54.3,0c0,0.1 0,0.3 0,0.6c0,0.3 0,0.6 0,0.8c0.2,4.3 1.1,8.3 2.8,12c1.7,3.7 4.1,6.7 7.3,9c3.2,2.3 6.9,3.5 11.2,3.5c3.8,0 6.9,-0.6 9.4,-1.7c2.5,-1.2 4.6,-2.4 6.1,-3.8c1.6,-1.4 2.6,-2.5 3.1,-3.4c0.9,-1.3 1.7,-2 2.2,-2.3c0.5,-0.3 1.4,-0.4 2.5,-0.4l7.7,0c0.9,0 1.8,0.3 2.4,0.9c0.7,0.6 1,1.4 0.9,2.4c-0.1,1.6 -0.9,3.5 -2.5,5.7c-1.6,2.3 -3.8,4.5 -6.7,6.7c-2.9,2.2 -6.4,4 -10.7,5.4c-4,1.4 -8.8,2.1 -14.2,2.1zm-21.5,-48.3l43,0l0,-0.5c0,-4.7 -0.9,-8.9 -2.6,-12.6c-1.7,-3.7 -4.2,-6.6 -7.5,-8.7c-3.2,-2.1 -7.1,-3.2 -11.6,-3.2c-4.5,0 -8.3,1.1 -11.5,3.2c-3.2,2.1 -5.6,5 -7.3,8.7c-1.7,3.7 -2.5,7.8 -2.5,12.6l0,0.5z" fill="#ffffff" id="svg_14"/>
    <path d="m739.6,788.1c-1.6,0 -2.8,-0.4 -3.7,-1.1c-0.9,-0.7 -1.6,-1.7 -2.1,-2.8l-29,-72.8c-0.2,-0.5 -0.3,-1 -0.3,-1.6c0,-0.9 0.3,-1.7 0.9,-2.4c0.6,-0.6 1.4,-0.9 2.4,-0.9l7.5,0c1.1,0 2,0.3 2.7,0.9c0.6,0.6 1,1.2 1.3,1.7l23.7,61.9l23.9,-61.8c0.2,-0.5 0.6,-1.1 1.2,-1.7c0.6,-0.6 1.4,-0.9 2.6,-0.9l7.7,0c0.8,0 1.6,0.3 2.3,0.9c0.7,0.6 1,1.4 1,2.4c0,0.5 -0.1,1 -0.3,1.6l-29.2,72.8c-0.4,1.2 -1.1,2.1 -2,2.8c-0.9,0.7 -2.2,1.1 -3.8,1.1l-6.8,0l0,-0.1z" fill="#ffffff" id="svg_15"/>
    <path d="m827.8,789.6c-10.9,0 -19.5,-3.3 -25.9,-10c-6.4,-6.6 -9.9,-15.7 -10.5,-27.2c-0.1,-1.4 -0.2,-3.1 -0.2,-5.3c0,-2.1 0.1,-3.9 0.2,-5.3c0.4,-7.4 2.1,-13.9 5.2,-19.5c3,-5.6 7.2,-9.9 12.5,-12.9c5.3,-3 11.5,-4.6 18.6,-4.6c7.9,0 14.6,1.7 20,5c5.4,3.3 9.5,8.1 12.3,14.3c2.8,6.2 4.2,13.4 4.2,21.7l0,2.7c0,1.2 -0.3,2 -1,2.7c-0.7,0.6 -1.5,0.9 -2.6,0.9l-54.3,0c0,0.1 0,0.3 0,0.6c0,0.3 0,0.6 0,0.8c0.2,4.3 1.1,8.3 2.8,12c1.7,3.7 4.1,6.7 7.3,9c3.2,2.3 6.9,3.5 11.2,3.5c3.8,0 6.9,-0.6 9.4,-1.7c2.5,-1.2 4.6,-2.4 6.1,-3.8c1.6,-1.4 2.6,-2.5 3.1,-3.4c0.9,-1.3 1.7,-2 2.2,-2.3c0.5,-0.3 1.4,-0.4 2.5,-0.4l7.7,0c0.9,0 1.8,0.3 2.4,0.9c0.7,0.6 1,1.4 0.9,2.4c-0.1,1.6 -0.9,3.5 -2.5,5.7c-1.6,2.3 -3.8,4.5 -6.7,6.7c-2.9,2.2 -6.4,4 -10.7,5.4c-4.1,1.4 -8.9,2.1 -14.2,2.1zm-21.5,-48.3l43,0l0,-0.5c0,-4.7 -0.9,-8.9 -2.6,-12.6c-1.7,-3.7 -4.2,-6.6 -7.5,-8.7c-3.2,-2.1 -7.1,-3.2 -11.6,-3.2c-4.5,0 -8.3,1.1 -11.5,3.2c-3.2,2.1 -5.6,5 -7.3,8.7c-1.7,3.7 -2.5,7.8 -2.5,12.6l0,0.5z" fill="#ffffff" id="svg_16"/>
    <path d="m886.8,788.1c-1,0 -1.9,-0.3 -2.6,-1c-0.7,-0.7 -1,-1.5 -1,-2.6l0,-104.3c0,-1 0.3,-1.9 1,-2.6c0.7,-0.7 1.5,-1 2.6,-1l7.4,0c1.1,0 2,0.3 2.7,1c0.6,0.7 0.9,1.5 0.9,2.6l0,104.2c0,1 -0.3,1.9 -0.9,2.6c-0.6,0.7 -1.5,1 -2.7,1l-7.4,0l0,0.1z" fill="#ffffff" id="svg_17"/>
    <path d="m954.6,789.6c-8,0 -14.6,-1.5 -19.9,-4.6c-5.3,-3 -9.4,-7.2 -12.2,-12.6c-2.8,-5.4 -4.4,-11.5 -4.7,-18.4c-0.1,-1.8 -0.2,-4.1 -0.2,-6.8c0,-2.8 0.1,-5 0.2,-6.7c0.3,-7 1.9,-13.2 4.8,-18.5c2.9,-5.3 7,-9.5 12.3,-12.6c5.3,-3 11.9,-4.6 19.8,-4.6s14.4,1.5 19.8,4.6c5.3,3 9.4,7.2 12.3,12.6c2.9,5.3 4.5,11.5 4.8,18.5c0.1,1.7 0.2,3.9 0.2,6.7c0,2.8 -0.1,5.1 -0.2,6.8c-0.3,6.9 -1.9,13.1 -4.7,18.4c-2.8,5.4 -6.9,9.6 -12.2,12.6c-5.5,3.1 -12.1,4.6 -20.1,4.6zm0,-12.1c6.5,0 11.7,-2.1 15.5,-6.2c3.9,-4.1 6,-10.2 6.3,-18.1c0.1,-1.6 0.2,-3.6 0.2,-6c0,-2.4 -0.1,-4.4 -0.2,-6c-0.3,-7.9 -2.4,-14 -6.3,-18.1c-3.9,-4.1 -9.1,-6.2 -15.5,-6.2c-6.5,0 -11.7,2.1 -15.6,6.2c-3.9,4.1 -6,10.2 -6.2,18.1c-0.1,1.6 -0.2,3.6 -0.2,6c0,2.4 0.1,4.4 0.2,6c0.2,8 2.3,14 6.2,18.1c3.9,4.2 9.1,6.2 15.6,6.2z" fill="#ffffff" id="svg_18"/>
    <path d="m1015,817.9c-1,0 -1.9,-0.3 -2.6,-1c-0.7,-0.7 -1,-1.5 -1,-2.6l0,-104.2c0,-1 0.3,-1.9 1,-2.6c0.7,-0.7 1.5,-1 2.6,-1l7.2,0c1,0 1.9,0.3 2.6,1c0.7,0.7 1,1.5 1,2.6l0,6.9c2.5,-3.5 5.9,-6.3 10,-8.6c4.2,-2.3 9.4,-3.5 15.7,-3.5c5.9,0 10.9,1 15,3c4.1,2 7.5,4.7 10.2,8.2c2.7,3.5 4.7,7.4 6,11.8c1.4,4.4 2.1,9.1 2.4,14.1c0.1,1.7 0.2,3.5 0.2,5.3c0,1.9 -0.1,3.7 -0.2,5.3c-0.2,4.9 -1,9.6 -2.4,14c-1.4,4.4 -3.4,8.4 -6,11.8c-2.7,3.4 -6.1,6.1 -10.2,8.2c-4.1,2 -9.1,3.1 -15,3.1c-6.1,0 -11.2,-1.1 -15.3,-3.4c-4.1,-2.2 -7.5,-5 -10.1,-8.4l0,36.4c0,1 -0.3,1.9 -0.9,2.6c-0.6,0.7 -1.5,1 -2.5,1l-7.7,0zm33.3,-41c5.4,0 9.7,-1.2 12.8,-3.5c3.1,-2.4 5.3,-5.4 6.7,-9.3c1.4,-3.8 2.1,-7.9 2.4,-12.3c0.1,-3 0.1,-6.1 0,-9.1c-0.2,-4.4 -1,-8.5 -2.4,-12.3c-1.4,-3.8 -3.6,-6.9 -6.7,-9.3c-3.1,-2.4 -7.4,-3.5 -12.8,-3.5c-5.1,0 -9.3,1.2 -12.5,3.6c-3.2,2.4 -5.5,5.5 -7.1,9.2c-1.5,3.7 -2.4,7.5 -2.6,11.4c-0.1,1.7 -0.2,3.7 -0.2,6c0,2.3 0.1,4.3 0.2,6.1c0.1,3.7 1,7.3 2.6,10.8c1.6,3.6 4.1,6.5 7.3,8.8c3.3,2.3 7.4,3.4 12.3,3.4z" fill="#ffffff" id="svg_19"/>
    <path d="m1137.5,789.6c-10.9,0 -19.5,-3.3 -25.9,-10c-6.4,-6.6 -9.9,-15.7 -10.5,-27.2c-0.1,-1.4 -0.2,-3.1 -0.2,-5.3c0,-2.1 0.1,-3.9 0.2,-5.3c0.4,-7.4 2.1,-13.9 5.2,-19.5c3,-5.6 7.2,-9.9 12.5,-12.9c5.3,-3 11.5,-4.6 18.6,-4.6c7.9,0 14.6,1.7 20,5c5.4,3.3 9.5,8.1 12.3,14.3c2.8,6.2 4.2,13.4 4.2,21.7l0,2.7c0,1.2 -0.3,2 -1,2.7c-0.7,0.6 -1.5,0.9 -2.6,0.9l-54.3,0c0,0.1 0,0.3 0,0.6c0,0.3 0,0.6 0,0.8c0.2,4.3 1.1,8.3 2.8,12c1.7,3.7 4.1,6.7 7.3,9c3.2,2.3 6.9,3.5 11.2,3.5c3.8,0 6.9,-0.6 9.4,-1.7s4.6,-2.4 6.1,-3.8c1.6,-1.4 2.6,-2.5 3.1,-3.4c0.9,-1.3 1.7,-2 2.2,-2.3c0.5,-0.3 1.4,-0.4 2.5,-0.4l7.7,0c0.9,0 1.8,0.3 2.4,0.9c0.7,0.6 1,1.4 0.9,2.4c-0.1,1.6 -0.9,3.5 -2.5,5.7c-1.6,2.3 -3.8,4.5 -6.7,6.7c-2.9,2.2 -6.4,4 -10.7,5.4c-4.1,1.4 -8.9,2.1 -14.2,2.1zm-21.5,-48.3l43,0l0,-0.5c0,-4.7 -0.9,-8.9 -2.6,-12.6c-1.7,-3.7 -4.2,-6.6 -7.5,-8.7c-3.2,-2.1 -7.1,-3.2 -11.6,-3.2c-4.5,0 -8.3,1.1 -11.5,3.2c-3.2,2.1 -5.6,5 -7.3,8.7c-1.7,3.7 -2.5,7.8 -2.5,12.6l0,0.5z" fill="#ffffff" id="svg_20"/>
    <path d="m1196.3,788.1c-1,0 -1.9,-0.3 -2.6,-1c-0.7,-0.7 -1,-1.5 -1,-2.6l0,-74.2c0,-1 0.3,-1.9 1,-2.7c0.7,-0.7 1.5,-1.1 2.6,-1.1l7.2,0c1,0 1.9,0.4 2.7,1.1c0.7,0.7 1.1,1.6 1.1,2.7l0,6.9c2.1,-3.6 5,-6.2 8.6,-8c3.7,-1.8 8.1,-2.7 13.3,-2.7l6.1,0c1,0 1.9,0.3 2.6,1c0.7,0.7 1,1.5 1,2.6l0,6.4c0,1 -0.3,1.9 -1,2.5c-0.7,0.6 -1.5,0.9 -2.6,0.9l-9.4,0c-5.7,0 -10.1,1.6 -13.3,4.9c-3.2,3.3 -4.9,7.8 -4.9,13.4l0,46.1c0,1 -0.4,1.9 -1.1,2.6c-0.7,0.7 -1.6,1 -2.7,1l-7.6,0l0,0.2z" fill="#ffffff" id="svg_21"/>
    <path d="m1280.6,789.6c-5.9,0 -10.9,-0.7 -15.1,-2.2c-4.2,-1.5 -7.6,-3.2 -10.2,-5.3c-2.6,-2.1 -4.6,-4.2 -5.9,-6.3c-1.3,-2.1 -2,-3.8 -2.1,-5c-0.1,-1.2 0.3,-2 1.1,-2.7c0.8,-0.6 1.7,-0.9 2.5,-0.9l7.1,0c0.5,0 1,0.1 1.3,0.2c0.4,0.2 0.9,0.6 1.5,1.3c1.4,1.5 2.9,2.9 4.6,4.4c1.7,1.5 3.7,2.7 6.2,3.6c2.5,0.9 5.5,1.4 9.2,1.4c5.3,0 9.7,-1 13.2,-3.1c3.5,-2 5.2,-5 5.2,-9c0,-2.6 -0.7,-4.7 -2.1,-6.3c-1.4,-1.6 -3.9,-3 -7.5,-4.2c-3.6,-1.3 -8.6,-2.6 -14.8,-3.9c-6.3,-1.5 -11.3,-3.3 -14.9,-5.4c-3.7,-2.1 -6.3,-4.7 -7.8,-7.7c-1.6,-3 -2.4,-6.4 -2.4,-10.1c0,-3.9 1.2,-7.6 3.5,-11.2c2.3,-3.6 5.7,-6.6 10.1,-8.9c4.4,-2.3 10,-3.5 16.7,-3.5c5.4,0 10.1,0.7 14,2c3.9,1.4 7.1,3.1 9.6,5.1c2.5,2 4.4,4.1 5.7,6c1.3,2 1.9,3.7 2,5c0.1,1 -0.2,1.9 -0.9,2.6c-0.7,0.7 -1.6,1 -2.5,1l-6.6,0c-0.7,0 -1.3,-0.2 -1.8,-0.5c-0.5,-0.3 -0.9,-0.7 -1.3,-1.1c-1,-1.4 -2.3,-2.7 -3.7,-4.1c-1.4,-1.4 -3.2,-2.5 -5.5,-3.4c-2.3,-0.9 -5.2,-1.3 -8.9,-1.3c-5.2,0 -9.2,1.1 -11.8,3.3c-2.6,2.2 -3.9,5 -3.9,8.3c0,2 0.6,3.8 1.7,5.3c1.2,1.6 3.3,3 6.6,4.2c3.2,1.3 8.1,2.6 14.4,4.1c6.9,1.4 12.3,3.2 16.3,5.5c4,2.3 6.8,5 8.5,8c1.7,3 2.5,6.5 2.5,10.5c0,4.4 -1.3,8.4 -3.8,12.1c-2.5,3.7 -6.3,6.6 -11.3,8.7c-5.2,2.5 -11.4,3.5 -18.7,3.5z" fill="#ffffff" id="svg_22"/>
   </g>
   <g id="svg_23">
    <path d="m475.9,559.9c0,-2.6 -3.1,-58.6 -46.8,-103.3c0.5,-5.7 0.5,-11.8 0.5,-17.5c0,-68.9 -22.6,-131.6 -60.7,-168.6l-6.2,-5.7l-6.7,5.1c-41.6,30.8 -69.4,101.8 -69.4,176.3c0,3.1 0,6.2 0.5,9.3c-44.7,45.2 -47.8,102.3 -47.8,104.9l0,47.3c0,7.7 5.1,13.9 12.3,15.4c1,0.5 2.6,0.5 3.6,0.5c6.2,0 11.8,-3.6 14.4,-9.3c11.8,-25.7 25.7,-45.2 40.1,-55.5c2.1,4.1 4.1,8.7 6.2,12.9l3.1,5.7l29.3,0.5l0,25.7c0,5.7 4.6,10.3 10.3,10.3s10.3,-4.6 10.3,-10.3l0,-25.7l24.7,0.5l3.1,-5.1c2.6,-4.6 5.7,-9.8 7.7,-14.9c14.4,10.3 29.3,29.8 41.6,56.6c2.6,5.7 8.2,9.3 14.4,9.3c1,0 2.6,0 3.6,-0.5c7.2,-1.5 12.3,-8.2 12.3,-15.4l-0.4,-48.5zm-216.5,28.8l0,-27.8c0,-0.5 2.1,-40.1 29.8,-76.6c2.6,19.5 6.7,38 12.9,55c-18,11.4 -32.4,30.9 -42.7,49.4l0,0zm121.9,-31.4l-12.9,0l0,-14.4c0,-5.7 -4.6,-10.3 -10.3,-10.3c-5.7,0 -10.3,4.6 -10.3,10.3l0,13.9l-17,0c-15.4,-31.4 -23.6,-70.4 -23.6,-110.5c0,-63.2 22.1,-124.4 54,-154.2c29.8,33.4 47.8,88.4 47.8,147c0.1,43.7 -9.7,85.3 -27.7,118.2l0,0zm74,31.4c-10.8,-19 -25.2,-38.6 -43.2,-49.9c6.2,-17 10.8,-35 13.9,-54.5c27.2,36.5 29.3,75.6 29.3,76.1l0,28.3z" fill="#ffffff" id="svg_24" transform="matrix(1 0 0 1 0 0)"/>
    <path d="m358.2,639.1c-5.7,0 -10.3,4.6 -10.3,10.3l0,60.6c0,5.7 4.6,10.3 10.3,10.3c5.7,0 10.3,-4.6 10.3,-10.3l0,-60.7c-0.1,-5.6 -4.7,-10.2 -10.3,-10.2l0,0z" fill="#ffffff" id="svg_25" transform="matrix(1 0 0 1 0 0)"/>
    <path d="m321.1,593.8c-5.7,0 -10.3,4.6 -10.3,10.3l0,60.7c0,5.7 4.6,10.3 10.3,10.3c5.7,0 10.3,-4.6 10.3,-10.3l0,-60.7c0,-5.6 -4.6,-10.3 -10.3,-10.3z" fill="#ffffff" id="svg_26" transform="matrix(1 0 0 1 0 0)"/>
    <path d="m395.2,593.8c-5.7,0 -10.3,4.6 -10.3,10.3l0,60.7c0,5.7 4.6,10.3 10.3,10.3c5.7,0 10.3,-4.6 10.3,-10.3l0,-60.7c0,-5.6 -4.7,-10.3 -10.3,-10.3l0,0z" fill="#ffffff" id="svg_27"/>
    <path d="m361.2,391.8c-19.5,0 -35.5,15.9 -35.5,35.5s15.9,35.5 35.5,35.5c19.5,0 35.5,-15.9 35.5,-35.5c-0.5,-19.6 -15.9,-35.5 -35.5,-35.5l0,0zm0,49.9c-8.2,0 -14.9,-6.7 -14.9,-14.9c0,-8.2 6.7,-14.9 14.9,-14.9c8.2,0 14.9,6.7 14.9,14.9c0,8.2 -6.6,14.9 -14.9,14.9z" fill="#ffffff" id="svg_28" transform="matrix(1 0 0 1 0 0)"/>
   </g>
  </g>
 </g>
</svg>